HIERARCHY
ROOT newVegas:Hips
{
	OFFSET 0.000000 96.479958 0.000000
	CHANNELS 6 Xposition Yposition Zposition Xrotation Yrotation Zrotation
	JOINT newVegas:Pelvis
	{
		OFFSET 0.000000 0.000000 0.000000
		CHANNELS 3 Xrotation Yrotation Zrotation
		JOINT newVegas:LeftUpLeg
		{
			OFFSET 18.735201 -5.666702 -4.541200
			CHANNELS 3 Xrotation Yrotation Zrotation
			JOINT newVegas:LeftLeg
			{
				OFFSET -0.021200 -31.938179 0.493100
				CHANNELS 3 Xrotation Yrotation Zrotation
				JOINT newVegas:LeftFoot
				{
					OFFSET 0.021200 -31.938179 -4.336299
					CHANNELS 3 Xrotation Yrotation Zrotation
					JOINT newVegas:LeftToeBase
					{
						OFFSET 0.943001 -26.722000 15.023500
						CHANNELS 3 Xrotation Yrotation Zrotation
						End Site
						{
							OFFSET 0.000000 30.670183 0.000000
						}
					}
				}
				JOINT newVegas:Left_PantLeg
				{
					OFFSET 0.663870 -9.044666 -1.108900
					CHANNELS 3 Xrotation Yrotation Zrotation
					End Site
					{
						OFFSET 1.415995 20.635357 0.000000
					}
				}
			}
		}
		JOINT newVegas:RightUpLeg
		{
			OFFSET -18.735201 -5.666702 -4.541200
			CHANNELS 3 Xrotation Yrotation Zrotation
			JOINT newVegas:RightLeg
			{
				OFFSET 0.018946 -31.938133 0.493100
				CHANNELS 3 Xrotation Yrotation Zrotation
				JOINT newVegas:RightFoot
				{
					OFFSET -0.018946 -31.938126 -4.336299
					CHANNELS 3 Xrotation Yrotation Zrotation
					JOINT newVegas:RightToeBase
					{
						OFFSET -0.943001 -26.722004 15.023500
						CHANNELS 3 Xrotation Yrotation Zrotation
						End Site
						{
							OFFSET 0.000000 30.670187 0.000000
						}
					}
				}
				JOINT newVegas:Right_PantLeg
				{
					OFFSET -0.661674 -9.044716 -1.108900
					CHANNELS 3 Xrotation Yrotation Zrotation
					End Site
					{
						OFFSET -1.415958 20.635269 0.000000
					}
				}
			}
		}
	}
	JOINT newVegas:Spine
	{
		OFFSET 0.000000 10.199997 -0.299500
		CHANNELS 3 Xrotation Yrotation Zrotation
		JOINT newVegas:Spine1
		{
			OFFSET 0.000000 11.900002 -1.516600
			CHANNELS 3 Xrotation Yrotation Zrotation
			JOINT newVegas:Spine2
			{
				OFFSET 0.000000 13.600006 -2.842500
				CHANNELS 3 Xrotation Yrotation Zrotation
				JOINT newVegas:Neck
				{
					OFFSET 0.000000 9.624100 -2.890100
					CHANNELS 3 Xrotation Yrotation Zrotation
					JOINT newVegas:Head
					{
						OFFSET 0.000000 14.068802 -1.351900
						CHANNELS 3 Xrotation Yrotation Zrotation
						JOINT newVegas:Hair_Back
						{
							OFFSET 0.000000 3.231903 -17.524799
							CHANNELS 3 Xrotation Yrotation Zrotation
							End Site
							{
								OFFSET 0.000000 19.849884 0.000000
							}
						}
						JOINT newVegas:Hair_Front
						{
							OFFSET 0.000000 31.260406 4.573800
							CHANNELS 3 Xrotation Yrotation Zrotation
							JOINT newVegas:Hair_Front1
							{
								OFFSET 0.000000 2.284103 11.993300
								CHANNELS 3 Xrotation Yrotation Zrotation
								JOINT newVegas:Hair_Front2
								{
									OFFSET 0.000000 2.284103 11.993300
									CHANNELS 3 Xrotation Yrotation Zrotation
									End Site
									{
										OFFSET 0.000000 12.208862 0.000000
									}
								}
							}
						}
						JOINT newVegas:Jowel
						{
							OFFSET 0.000000 -7.458206 6.864100
							CHANNELS 3 Xrotation Yrotation Zrotation
							End Site
							{
								OFFSET 0.000000 19.849884 0.000000
							}
						}
					}
				}
				JOINT newVegas:LeftShoulder
				{
					OFFSET 15.263000 10.923401 -0.547700
					CHANNELS 3 Xrotation Yrotation Zrotation
					JOINT newVegas:LeftArm
					{
						OFFSET 25.438599 -2.830597 -13.032500
						CHANNELS 3 Xrotation Yrotation Zrotation
						JOINT newVegas:LeftForeArm
						{
							OFFSET 29.960503 0.000000 0.000000
							CHANNELS 3 Xrotation Yrotation Zrotation
							JOINT newVegas:LeftHand
							{
								OFFSET 27.849251 0.000000 0.000000
								CHANNELS 3 Xrotation Yrotation Zrotation
								JOINT newVegas:LeftHandThumb1
								{
									OFFSET 4.487587 -3.305161 6.305391
									CHANNELS 3 Xrotation Yrotation Zrotation
									JOINT newVegas:LeftHandThumb2
									{
										OFFSET 5.480453 -3.164139 3.164143
										CHANNELS 3 Xrotation Yrotation Zrotation
										JOINT newVegas:LeftHandThumb3
										{
											OFFSET 5.159721 -2.978973 2.978967
											CHANNELS 3 Xrotation Yrotation Zrotation
											End Site
											{
												OFFSET 2.494507 5.926697 1.738678
											}
										}
									}
								}
								JOINT newVegas:LeftHandIndex1
								{
									OFFSET 18.578728 -0.527832 5.208049
									CHANNELS 3 Xrotation Yrotation Zrotation
									JOINT newVegas:LeftHandIndex2
									{
										OFFSET 3.192009 0.000000 0.000000
										CHANNELS 3 Xrotation Yrotation Zrotation
										JOINT newVegas:LeftHandIndex3
										{
											OFFSET 3.835129 0.000000 0.000000
											CHANNELS 3 Xrotation Yrotation Zrotation
											End Site
											{
												OFFSET -0.034599 3.816971 0.371180
											}
										}
									}
								}
								JOINT newVegas:LeftHandMiddle1
								{
									OFFSET 18.476105 0.000000 0.000000
									CHANNELS 3 Xrotation Yrotation Zrotation
									JOINT newVegas:LeftHandMiddle2
									{
										OFFSET 3.324875 0.000000 0.000000
										CHANNELS 3 Xrotation Yrotation Zrotation
										JOINT newVegas:LeftHandMiddle3
										{
											OFFSET 4.596550 0.000000 0.000000
											CHANNELS 3 Xrotation Yrotation Zrotation
											End Site
											{
												OFFSET 0.057701 4.578827 0.399218
											}
										}
									}
								}
								JOINT newVegas:LeftHandRing1
								{
									OFFSET 17.732719 0.121887 -4.201567
									CHANNELS 3 Xrotation Yrotation Zrotation
									JOINT newVegas:LeftHandRing2
									{
										OFFSET 2.733170 0.000000 0.000000
										CHANNELS 3 Xrotation Yrotation Zrotation
										JOINT newVegas:LeftHandRing3
										{
											OFFSET 3.178268 0.000000 0.000000
											CHANNELS 3 Xrotation Yrotation Zrotation
											End Site
											{
												OFFSET 0.119102 3.170624 0.185394
											}
										}
									}
								}
								JOINT newVegas:LeftHandPinky1
								{
									OFFSET 15.989624 -0.606689 -7.535461
									CHANNELS 3 Xrotation Yrotation Zrotation
									JOINT newVegas:LeftHandPinky2
									{
										OFFSET 2.538986 0.000000 0.000000
										CHANNELS 3 Xrotation Yrotation Zrotation
										JOINT newVegas:LeftHandPinky3
										{
											OFFSET 2.593102 0.000000 0.000000
											CHANNELS 3 Xrotation Yrotation Zrotation
											End Site
											{
												OFFSET -0.150902 2.584198 0.152708
											}
										}
									}
								}
							}
							JOINT newVegas:Left_Sleeve
							{
								OFFSET 0.267448 -0.649796 0.577675
								CHANNELS 3 Xrotation Yrotation Zrotation
								End Site
								{
									OFFSET 0.000000 15.991241 0.000000
								}
							}
							JOINT newVegas:Left_CapeC
							{
								OFFSET 15.715958 -8.608795 -6.935905
								CHANNELS 3 Xrotation Yrotation Zrotation
								JOINT newVegas:Left_CapeC1
								{
									OFFSET 0.000000 -8.688499 0.000000
									CHANNELS 3 Xrotation Yrotation Zrotation
									End Site
									{
										OFFSET 0.000000 8.688499 0.000000
									}
								}
							}
						}
						JOINT newVegas:Left_CapeB
						{
							OFFSET 26.118385 -8.608795 -7.079235
							CHANNELS 3 Xrotation Yrotation Zrotation
							JOINT newVegas:Left_CapeB1
							{
								OFFSET 0.000000 -8.688499 0.000000
								CHANNELS 3 Xrotation Yrotation Zrotation
								End Site
								{
									OFFSET 0.000000 8.688499 0.000000
								}
							}
						}
						JOINT newVegas:Left_CapeA
						{
							OFFSET 5.115639 -8.608795 -10.395809
							CHANNELS 3 Xrotation Yrotation Zrotation
							JOINT newVegas:Left_CapeA1
							{
								OFFSET 0.000000 -8.688499 0.000000
								CHANNELS 3 Xrotation Yrotation Zrotation
								End Site
								{
									OFFSET 0.000000 8.688499 0.000000
								}
							}
						}
					}
				}
				JOINT newVegas:RightShoulder
				{
					OFFSET -15.263000 10.923401 -0.547700
					CHANNELS 3 Xrotation Yrotation Zrotation
					JOINT newVegas:RightArm
					{
						OFFSET -25.438599 -2.830597 -13.032500
						CHANNELS 3 Xrotation Yrotation Zrotation
						JOINT newVegas:RightForeArm
						{
							OFFSET -29.960503 0.000000 0.000000
							CHANNELS 3 Xrotation Yrotation Zrotation
							JOINT newVegas:RightHand
							{
								OFFSET -27.849251 0.000000 0.000000
								CHANNELS 3 Xrotation Yrotation Zrotation
								JOINT newVegas:RightHandThumb1
								{
									OFFSET -4.487587 -3.305161 6.305391
									CHANNELS 3 Xrotation Yrotation Zrotation
									JOINT newVegas:RightHandThumb2
									{
										OFFSET -5.480453 -3.164139 3.164143
										CHANNELS 3 Xrotation Yrotation Zrotation
										JOINT newVegas:RightHandThumb3
										{
											OFFSET -5.159721 -2.978973 2.978967
											CHANNELS 3 Xrotation Yrotation Zrotation
											End Site
											{
												OFFSET -2.494507 5.926697 1.738678
											}
										}
									}
								}
								JOINT newVegas:RightHandIndex1
								{
									OFFSET -18.578728 -0.527832 5.208049
									CHANNELS 3 Xrotation Yrotation Zrotation
									JOINT newVegas:RightHandIndex2
									{
										OFFSET -3.192009 0.000000 0.000000
										CHANNELS 3 Xrotation Yrotation Zrotation
										JOINT newVegas:RightHandIndex3
										{
											OFFSET -3.835129 0.000000 0.000000
											CHANNELS 3 Xrotation Yrotation Zrotation
											End Site
											{
												OFFSET 0.034599 3.816971 0.371180
											}
										}
									}
								}
								JOINT newVegas:RightHandMiddle1
								{
									OFFSET -18.476105 0.000000 0.000000
									CHANNELS 3 Xrotation Yrotation Zrotation
									JOINT newVegas:RightHandMiddle2
									{
										OFFSET -3.324875 0.000000 0.000000
										CHANNELS 3 Xrotation Yrotation Zrotation
										JOINT newVegas:RightHandMiddle3
										{
											OFFSET -4.596550 0.000000 0.000000
											CHANNELS 3 Xrotation Yrotation Zrotation
											End Site
											{
												OFFSET -0.057701 4.578827 0.399218
											}
										}
									}
								}
								JOINT newVegas:RightHandRing1
								{
									OFFSET -17.732719 0.121887 -4.201567
									CHANNELS 3 Xrotation Yrotation Zrotation
									JOINT newVegas:RightHandRing2
									{
										OFFSET -2.733170 0.000000 0.000000
										CHANNELS 3 Xrotation Yrotation Zrotation
										JOINT newVegas:RightHandRing3
										{
											OFFSET -3.178268 0.000000 0.000000
											CHANNELS 3 Xrotation Yrotation Zrotation
											End Site
											{
												OFFSET -0.119102 3.170624 0.185394
											}
										}
									}
								}
								JOINT newVegas:RightHandPinky1
								{
									OFFSET -15.989624 -0.606689 -7.535461
									CHANNELS 3 Xrotation Yrotation Zrotation
									JOINT newVegas:RightHandPinky2
									{
										OFFSET -2.538986 0.000000 0.000000
										CHANNELS 3 Xrotation Yrotation Zrotation
										JOINT newVegas:RightHandPinky3
										{
											OFFSET -2.593102 0.000000 0.000000
											CHANNELS 3 Xrotation Yrotation Zrotation
											End Site
											{
												OFFSET 0.150902 2.584198 0.152708
											}
										}
									}
								}
							}
							JOINT newVegas:Right_CapeC
							{
								OFFSET -15.715958 -8.608795 -6.935905
								CHANNELS 3 Xrotation Yrotation Zrotation
								JOINT newVegas:Right_CapeC1
								{
									OFFSET 0.000000 -8.688499 0.000000
									CHANNELS 3 Xrotation Yrotation Zrotation
									End Site
									{
										OFFSET 0.000000 8.688499 0.000000
									}
								}
							}
							JOINT newVegas:Right_Sleeve
							{
								OFFSET -0.267448 -0.649994 0.577675
								CHANNELS 3 Xrotation Yrotation Zrotation
								End Site
								{
									OFFSET 0.000000 15.991302 0.000000
								}
							}
						}
						JOINT newVegas:Right_CapeA
						{
							OFFSET -5.115540 -8.608795 -10.395824
							CHANNELS 3 Xrotation Yrotation Zrotation
							JOINT newVegas:Right_CapeA1
							{
								OFFSET 0.000000 -8.688499 0.000000
								CHANNELS 3 Xrotation Yrotation Zrotation
								End Site
								{
									OFFSET 0.000000 8.688499 0.000000
								}
							}
						}
						JOINT newVegas:Right_CapeB
						{
							OFFSET -26.118187 -8.608795 -7.079266
							CHANNELS 3 Xrotation Yrotation Zrotation
							JOINT newVegas:Right_CapeB1
							{
								OFFSET 0.000000 -8.688499 0.000000
								CHANNELS 3 Xrotation Yrotation Zrotation
								End Site
								{
									OFFSET 0.000000 8.688499 0.000000
								}
							}
						}
					}
				}
				JOINT newVegas:Left_Collar
				{
					OFFSET 18.625099 8.655502 8.828100
					CHANNELS 3 Xrotation Yrotation Zrotation
					JOINT newVegas:Left_Collar1
					{
						OFFSET 14.783401 10.540405 -1.259500
						CHANNELS 3 Xrotation Yrotation Zrotation
						End Site
						{
							OFFSET 0.000000 18.199875 0.000000
						}
					}
				}
				JOINT newVegas:Collar_Back
				{
					OFFSET 0.000000 15.630707 -20.132601
					CHANNELS 3 Xrotation Yrotation Zrotation
					End Site
					{
						OFFSET 0.000000 22.523010 0.000000
					}
				}
				JOINT newVegas:Left_Peck
				{
					OFFSET 17.239599 -5.132599 25.482599
					CHANNELS 3 Xrotation Yrotation Zrotation
					End Site
					{
						OFFSET 0.000000 22.523010 0.000000
					}
				}
				JOINT newVegas:Right_Peck
				{
					OFFSET -17.239599 -5.132202 25.482599
					CHANNELS 3 Xrotation Yrotation Zrotation
					End Site
					{
						OFFSET 0.000000 22.523010 0.000000
					}
				}
				JOINT newVegas:Right_Collar
				{
					OFFSET -18.625099 8.655792 8.828100
					CHANNELS 3 Xrotation Yrotation Zrotation
					JOINT newVegas:Right_Collar1
					{
						OFFSET -14.783401 10.539993 -1.259500
						CHANNELS 3 Xrotation Yrotation Zrotation
						End Site
						{
							OFFSET 0.000000 18.199631 0.000000
						}
					}
				}
			}
		}
		JOINT newVegas:Belly
		{
			OFFSET 0.000000 -6.540398 9.014299
			CHANNELS 3 Xrotation Yrotation Zrotation
			End Site
			{
				OFFSET 0.000000 11.566666 0.000000
			}
		}
	}
	JOINT newVegas:ElvisFacialAnim_Joint
	{
		OFFSET 1.000000 -95.330101 -8.825800
		CHANNELS 3 Xrotation Yrotation Zrotation
		End Site
		{
			OFFSET 0.000000 35.315800 0.000000
		}
	}
}
MOTION
Frames: 4
Frame Time: 0.033333
4.671618 52.975082 0.906765 23.775052 -36.837457 4.638037 0.000001 -0.000002 0.000001 -94.465013 -15.386540 30.154179 136.821216 6.048848 -3.109622 -54.030403 4.253982 -15.140965 0.000000 -0.000000 -0.000000 -0.000001 -0.000000 -0.000000 -104.939785 13.952627 2.873766 123.255053 1.898223 -1.216215 -26.103931 -8.376422 16.164449 -0.000001 0.000002 0.000001 -0.000000 0.000001 -0.000000 14.498388 2.921930 0.083875 8.814111 -2.612685 0.537002 8.833372 0.506230 7.321084 -2.831567 -7.161283 0.699574 -2.831565 -7.161296 0.699582 -0.000000 0.000000 -0.000000 -2.831561 -7.161279 0.699580 -2.831546 -7.161304 0.699585 -0.000000 -0.000001 0.000001 -0.000000 0.000000 -0.000001 8.456502 -21.180222 14.578542 -82.034014 -20.598590 -43.744244 31.165320 -37.483016 31.761814 -58.612298 -3.294799 3.361722 17.551633 -5.699262 -12.932262 10.850456 26.127681 8.644834 0.000000 -0.000003 -0.000003 13.980940 1.201540 -55.004313 0.381504 1.169564 -65.441887 -0.000000 -0.000001 0.000000 7.504710 1.174343 -63.778490 1.807955 1.478127 -64.568060 -0.000000 0.000001 0.000000 8.574678 2.177933 -75.148958 -0.201026 0.998823 -57.855152 -0.000000 -0.000001 0.000000 10.030107 13.637028 -84.750230 0.869815 0.055033 -64.595141 0.000000 -0.000005 -0.000002 -0.000000 0.000003 0.000003 -0.000000 0.000003 0.000003 -0.000001 0.000003 0.000003 0.000002 -0.000002 -0.000003 0.000001 -0.000002 -0.000006 0.000002 -0.000002 -0.000003 0.000000 -0.000003 -0.000005 8.336628 7.242569 6.460021 -17.377014 9.405579 16.953798 9.002767 63.499907 -2.295945 1.719795 18.175963 -10.283649 13.660848 12.289342 -13.518540 -47.014784 -44.586092 7.259307 0.000001 -0.000002 -0.000001 2.365940 -3.644088 -2.377736 -2.057231 -2.462396 7.816126 -0.000006 0.000002 0.000000 -1.983258 -5.700312 1.031707 0.280588 -5.098359 14.361064 0.000003 -0.000001 -0.000001 -3.270143 -8.557986 -1.423570 4.011747 -3.988245 20.071792 -0.000003 0.000001 0.000001 -6.477736 -11.340309 1.145173 10.723526 -2.554649 12.710638 0.000002 0.000003 0.000001 -0.000001 0.000000 0.000003 0.000001 0.000000 0.000003 0.000001 0.000001 0.000004 0.000000 0.000000 -0.000002 0.000000 0.000000 -0.000001 0.000000 0.000000 -0.000002 0.000001 -0.000000 -0.000000 -0.000000 0.000001 0.000001 -0.000000 0.000001 0.000001 -0.000000 0.000001 0.000001 -0.000000 0.000001 0.000001 -0.000000 0.000001 0.000001 -0.000000 0.000001 0.000001 -0.000000 0.000001 0.000001 -0.000001 -0.000003 -0.000000 0.000001 -0.000002 0.000001 
5.536691 53.330215 1.514404 25.779495 -40.745046 7.480401 -0.000000 -0.000002 0.000000 -88.386036 -13.422410 32.593840 136.968556 6.166183 -5.676692 -58.908353 6.028852 -16.568953 -0.000000 0.000000 0.000000 -0.000001 0.000001 0.000000 -105.224467 16.513350 4.220684 120.361812 3.910268 -1.024454 -26.539301 -8.913609 17.833356 -0.000000 0.000001 0.000000 0.000001 -0.000003 -0.000000 15.067146 3.127331 0.278746 8.495506 -2.666993 1.219858 8.508980 0.611112 8.012666 -2.871494 -7.299192 0.624144 -2.871474 -7.299198 0.624148 -0.000001 -0.000001 0.000001 -2.871487 -7.299223 0.624146 -2.871548 -7.299178 0.624132 -0.000003 -0.000001 -0.000003 -0.000001 -0.000001 0.000001 8.815090 -22.853441 13.495060 -79.991952 -20.779341 -41.613696 32.348934 -38.746191 32.773601 -58.676345 -2.758642 3.613404 17.551631 -5.699259 -12.932255 10.850462 26.127687 8.644831 0.000002 -0.000001 -0.000006 13.980942 1.201541 -55.004313 0.381504 1.169563 -65.441887 -0.000000 -0.000002 -0.000000 7.504711 1.174344 -63.778496 1.807952 1.478128 -64.568060 0.000000 0.000000 0.000000 8.574680 2.177933 -75.148951 -0.201025 0.998822 -57.855152 0.000001 -0.000002 0.000000 10.030105 13.637028 -84.750230 0.869812 0.055037 -64.595141 -0.000001 0.000000 0.000001 -0.000000 0.000000 0.000001 -0.000000 0.000000 0.000001 -0.000001 0.000001 0.000001 0.000002 0.000000 -0.000002 0.000002 -0.000001 -0.000004 0.000002 0.000000 -0.000002 0.000001 -0.000002 -0.000003 8.491695 6.783204 6.650534 -17.247770 9.756386 17.469524 10.281710 64.281164 -3.520168 1.626068 17.784501 -10.057214 13.687479 12.136955 -13.559613 -46.559193 -44.430169 7.267516 0.000001 -0.000003 0.000001 2.365817 -3.644568 -2.109154 -2.058177 -2.462009 8.084779 0.000001 -0.000000 0.000004 -1.982880 -5.700451 1.433252 0.281077 -5.101112 14.762619 0.000003 0.000001 0.000002 -3.270226 -8.558252 -1.054009 4.009480 -3.988384 20.441187 -0.000002 0.000001 -0.000002 -6.477664 -11.340592 1.739535 10.723771 -2.554823 13.304962 -0.000002 0.000003 -0.000000 -0.000005 -0.000001 -0.000000 -0.000005 -0.000001 0.000002 -0.000003 -0.000000 0.000001 -0.000002 -0.000001 -0.000001 -0.000002 0.000000 -0.000000 -0.000002 -0.000001 -0.000001 -0.000001 -0.000000 0.000001 0.000002 -0.000000 0.000000 0.000002 -0.000000 0.000000 0.000002 -0.000000 0.000000 0.000002 -0.000000 0.000000 0.000002 -0.000000 0.000000 0.000002 -0.000000 0.000000 0.000002 -0.000000 0.000000 0.000001 0.000000 -0.000000 -0.000000 -0.000002 0.000000 
6.295786 53.520103 2.334909 28.522489 -44.496493 10.871318 -0.000000 -0.000002 0.000000 -82.596699 -11.092492 34.152394 137.142562 6.259145 -8.249461 -63.752419 8.337719 -18.226008 -0.000000 -0.000000 0.000000 -0.000000 -0.000001 -0.000000 -105.571201 19.071130 5.278416 117.400925 5.901785 -0.844610 -27.253157 -9.448304 19.741002 -0.000000 0.000002 0.000001 0.000001 0.000003 0.000001 15.400750 3.202340 1.031803 8.339239 -2.847661 1.574598 8.357721 0.528987 8.401836 -2.870128 -7.482691 0.890848 -2.870143 -7.482677 0.890832 -0.000000 -0.000001 -0.000001 -2.870069 -7.482663 0.890853 -2.870149 -7.482733 0.890855 -0.000003 -0.000000 -0.000001 -0.000000 -0.000001 -0.000000 9.625481 -24.142103 14.443188 -78.329531 -20.584848 -38.909163 32.119231 -39.324814 32.550868 -58.704690 -2.396082 3.915458 17.551631 -5.699261 -12.932257 10.850459 26.127685 8.644831 -0.000002 -0.000002 -0.000005 13.980940 1.201540 -55.004313 0.381507 1.169566 -65.441887 0.000001 0.000001 0.000001 7.504710 1.174343 -63.778496 1.807956 1.478127 -64.568060 0.000000 0.000000 -0.000000 8.574677 2.177935 -75.148951 -0.201025 0.998824 -57.855145 -0.000000 -0.000002 0.000000 10.030104 13.637028 -84.750230 0.869813 0.055034 -64.595134 -0.000003 -0.000002 -0.000001 0.000000 -0.000003 -0.000002 0.000000 -0.000003 -0.000002 -0.000001 -0.000003 -0.000002 0.000000 -0.000003 0.000003 -0.000000 -0.000003 0.000000 0.000000 -0.000003 0.000003 -0.000001 -0.000005 0.000002 8.696491 6.354368 7.016055 -17.269327 10.714907 18.076598 10.927171 64.054074 -4.213612 1.613821 18.109254 -9.923443 13.721639 11.942666 -13.612050 -45.978334 -44.232141 7.277521 0.000001 -0.000003 0.000001 2.365688 -3.644829 -1.800815 -2.059133 -2.461908 8.393121 -0.000000 -0.000001 0.000000 -1.982386 -5.700662 1.888633 0.281148 -5.101232 15.217960 -0.000000 0.000000 0.000000 -3.270264 -8.558517 -0.632057 4.008509 -3.988496 20.863047 -0.000001 -0.000001 0.000001 -6.477633 -11.340888 2.420693 10.723789 -2.555063 13.986017 0.000003 -0.000000 0.000001 -0.000002 -0.000001 -0.000004 -0.000001 0.000000 0.000001 -0.000001 -0.000000 -0.000002 -0.000000 -0.000002 -0.000000 -0.000000 -0.000001 0.000002 -0.000000 -0.000002 -0.000000 0.000000 -0.000001 0.000003 0.000003 0.000002 -0.000000 0.000003 0.000002 -0.000000 0.000003 0.000002 -0.000000 0.000003 0.000002 -0.000000 0.000003 0.000002 -0.000000 0.000003 0.000002 -0.000000 0.000003 0.000002 -0.000000 0.000002 0.000002 -0.000000 -0.000000 -0.000002 0.000000 
7.001385 53.553001 3.213465 32.001868 -47.775257 14.782684 0.000001 0.000001 -0.000001 -78.057144 -8.596141 34.528201 137.330516 6.764826 -10.536510 -67.866153 10.953002 -19.906801 -0.000000 -0.000000 -0.000000 0.000000 0.000000 0.000001 -106.159397 21.524827 6.067669 114.372986 7.650608 -0.699329 -27.840155 -9.961395 21.930023 0.000000 0.000001 -0.000000 -0.000000 0.000000 -0.000000 15.497366 3.236428 1.981379 8.234471 -3.095614 1.980301 8.262785 0.384727 8.854463 -2.887546 -7.614954 1.139813 -2.887543 -7.614956 1.139808 0.000005 -0.000000 -0.000000 -2.887487 -7.615003 1.139824 -2.887505 -7.614930 1.139818 -0.000005 -0.000001 -0.000002 0.000005 -0.000000 -0.000000 10.693654 -25.163645 16.266420 -77.046617 -20.205708 -36.244798 31.196349 -39.612034 31.662199 -58.725174 -2.195988 4.147298 17.551633 -5.699261 -12.932261 10.850456 26.127690 8.644831 0.000002 -0.000002 -0.000003 13.980940 1.201539 -55.004313 0.381504 1.169566 -65.441887 -0.000000 -0.000001 0.000000 7.504708 1.174343 -63.778496 1.807952 1.478127 -64.568053 0.000000 -0.000000 0.000000 8.574679 2.177933 -75.148958 -0.201025 0.998824 -57.855152 0.000001 -0.000001 0.000000 10.030106 13.637027 -84.750230 0.869811 0.055036 -64.595148 -0.000000 -0.000003 0.000000 0.000001 0.000002 0.000001 0.000001 0.000002 0.000001 0.000000 0.000002 0.000001 -0.000001 0.000003 -0.000004 -0.000000 0.000002 -0.000004 -0.000001 0.000003 -0.000004 -0.000002 0.000002 -0.000005 9.003912 6.139593 7.876165 -17.203134 11.514432 18.363723 10.834038 63.788844 -4.492996 1.597299 18.249775 -9.818478 13.762882 11.709026 -13.675256 -45.279960 -43.995093 7.288413 0.000001 0.000000 -0.000002 2.365493 -3.645229 -1.454702 -2.060088 -2.461625 8.739070 0.000001 -0.000000 0.000003 -1.981765 -5.700971 2.394867 0.281246 -5.101566 15.724199 0.000003 -0.000001 0.000001 -3.270230 -8.558768 -0.160901 4.007975 -3.988711 21.334234 -0.000000 0.000002 -0.000000 -6.477571 -11.341230 3.183616 10.723987 -2.555251 14.748960 0.000001 0.000003 -0.000002 -0.000001 -0.000000 -0.000001 -0.000001 -0.000000 -0.000003 -0.000001 -0.000001 -0.000001 -0.000004 0.000001 -0.000002 -0.000004 0.000002 -0.000000 -0.000004 0.000001 -0.000002 -0.000004 0.000002 0.000001 -0.000003 -0.000001 -0.000000 -0.000003 -0.000001 -0.000000 -0.000003 -0.000001 -0.000000 -0.000003 -0.000001 -0.000000 -0.000003 -0.000001 -0.000000 -0.000003 -0.000001 -0.000000 -0.000003 -0.000001 -0.000000 0.000001 -0.000002 0.000003 0.000001 0.000001 -0.000001 
